<?xml version="1.0" encoding="UTF-8"?>
<svg width="17px" height="15px" viewBox="0 0 17 15" version="1.1" xmlns="http://www.w3.org/2000/svg" xmlns:xlink="http://www.w3.org/1999/xlink">
    <!-- Generator: Sketch 54.1 (76490) - https://sketchapp.com -->
    <title>Shape</title>
    <desc>Created with Sketch.</desc>
    <g id="Page-1" stroke="none" stroke-width="1" fill="none" fill-rule="evenodd">
        <g id="Desktop-HD" transform="translate(-340.000000, -1944.000000)" fill="#FFFFFF" fill-rule="nonzero">
            <g id="Produkter" transform="translate(0.000000, 1333.000000)">
                <g id="Group-12-Copy" transform="translate(87.000000, 228.000000)">
                    <g id="Group-11" transform="translate(162.000000, 380.000000)">
                        <path d="M94.2292917,6.54166667 L97.5591667,3.21108333 C97.6994167,3.07083333 97.8842917,3 98.0691667,3 C98.503375,3 98.7916667,3.35770833 98.7916667,3.728875 C98.7916667,3.90595833 98.7265,4.085875 98.579875,4.2325 L96.2707083,6.54166667 L94.2292917,6.54166667 Z M102.729292,6.54166667 L104.771417,6.54166667 L101.440833,3.21108333 C101.300583,3.07083333 101.115708,3 100.930833,3 C100.496625,3 100.208333,3.35770833 100.208333,3.728875 C100.208333,3.90595833 100.2735,4.085875 100.420125,4.2325 L102.729292,6.54166667 L102.729292,6.54166667 Z M105.35225,9.375 L105.340917,9.40404167 L102.792333,15.75 L96.2076667,15.75 L93.6597917,9.402625 L93.6484583,9.375 L105.35225,9.375 L105.35225,9.375 Z M108,7.95833333 L91,7.95833333 L91,9.375 L91.4554583,9.375 C91.8344167,9.375 92.1786667,9.59033333 92.345125,9.93033333 L95.25,17.1666667 L103.75,17.1666667 L106.655583,9.93175 C106.821333,9.59104167 107.167,9.375 107.54525,9.375 L108,9.375 L108,7.95833333 Z M98.0833333,11.5 C98.0833333,11.109 97.7667083,10.7916667 97.375,10.7916667 C96.9832917,10.7916667 96.6666667,11.109 96.6666667,11.5 L96.6666667,13.625 C96.6666667,14.016 96.9832917,14.3333333 97.375,14.3333333 C97.7667083,14.3333333 98.0833333,14.016 98.0833333,13.625 L98.0833333,11.5 Z M100.208333,11.5 C100.208333,11.109 99.8917083,10.7916667 99.5,10.7916667 C99.1082917,10.7916667 98.7916667,11.109 98.7916667,11.5 L98.7916667,13.625 C98.7916667,14.016 99.1082917,14.3333333 99.5,14.3333333 C99.8917083,14.3333333 100.208333,14.016 100.208333,13.625 L100.208333,11.5 Z M102.333333,11.5 C102.333333,11.109 102.016708,10.7916667 101.625,10.7916667 C101.233292,10.7916667 100.916667,11.109 100.916667,11.5 L100.916667,13.625 C100.916667,14.016 101.233292,14.3333333 101.625,14.3333333 C102.016708,14.3333333 102.333333,14.016 102.333333,13.625 L102.333333,11.5 Z" id="Shape"></path>
                    </g>
                </g>
            </g>
        </g>
    </g>
</svg>