<?xml version="1.0" encoding="UTF-8"?>
<svg width="24px" height="20px" viewBox="0 0 24 20" version="1.1" xmlns="http://www.w3.org/2000/svg" xmlns:xlink="http://www.w3.org/1999/xlink">
    <!-- Generator: Sketch 54.1 (76490) - https://sketchapp.com -->
    <title>Shape</title>
    <desc>Created with Sketch.</desc>
    <g id="Page-1" stroke="none" stroke-width="1" fill="none" fill-rule="evenodd">
        <g id="Desktop-HD" transform="translate(-1465.000000, -85.000000)" fill="#212121" fill-rule="nonzero">
            <path d="M1469.559,90 L1474.26,85.298 C1474.458,85.1 1474.719,85 1474.98,85 C1475.593,85 1476,85.505 1476,86.029 C1476,86.279 1475.908,86.533 1475.701,86.74 L1472.441,90 L1469.559,90 Z M1481.559,90 L1484.442,90 L1479.74,85.298 C1479.542,85.1 1479.281,85 1479.02,85 C1478.407,85 1478,85.505 1478,86.029 C1478,86.279 1478.092,86.533 1478.299,86.74 L1481.559,90 L1481.559,90 Z M1485.262,94 L1485.246,94.041 L1481.648,103 L1472.352,103 L1468.755,94.039 L1468.739,94 L1485.262,94 L1485.262,94 Z M1489,92 L1465,92 L1465,94 L1465.643,94 C1466.178,94 1466.664,94.304 1466.899,94.784 L1471,105 L1483,105 L1487.102,94.786 C1487.336,94.305 1487.824,94 1488.358,94 L1489,94 L1489,92 Z M1475,97 C1475,96.448 1474.553,96 1474,96 C1473.447,96 1473,96.448 1473,97 L1473,100 C1473,100.552 1473.447,101 1474,101 C1474.553,101 1475,100.552 1475,100 L1475,97 Z M1478,97 C1478,96.448 1477.553,96 1477,96 C1476.447,96 1476,96.448 1476,97 L1476,100 C1476,100.552 1476.447,101 1477,101 C1477.553,101 1478,100.552 1478,100 L1478,97 Z M1481,97 C1481,96.448 1480.553,96 1480,96 C1479.447,96 1479,96.448 1479,97 L1479,100 C1479,100.552 1479.447,101 1480,101 C1480.553,101 1481,100.552 1481,100 L1481,97 Z" id="Shape"></path>
        </g>
    </g>
</svg>