<?xml version="1.0" encoding="UTF-8"?>
<svg width="12px" height="9px" viewBox="0 0 12 9" version="1.1" xmlns="http://www.w3.org/2000/svg" xmlns:xlink="http://www.w3.org/1999/xlink">
    <!-- Generator: Sketch 54.1 (76490) - https://sketchapp.com -->
    <title></title>
    <desc>Created with Sketch.</desc>
    <g id="Page-1" stroke="none" stroke-width="1" fill="none" fill-rule="evenodd">
        <g id="Desktop-HD" transform="translate(-656.000000, -20.000000)" fill="#EA7033" fill-rule="nonzero">
            <g id="Group-15" transform="translate(656.000000, 15.000000)">
                <path d="M4.078125,13.7890625 L0.1640625,9.8984375 C0.0546869531,9.78906195 0,9.64843836 0,9.4765625 C0,9.30468664 0.0546869531,9.16406305 0.1640625,9.0546875 L1.03125,8.2109375 C1.14062555,8.08593687 1.27734293,8.0234375 1.44140625,8.0234375 C1.60546957,8.0234375 1.74999938,8.08593687 1.875,8.2109375 L4.5,10.8359375 L10.125,5.2109375 C10.2500006,5.08593687 10.3945304,5.0234375 10.5585938,5.0234375 C10.7226571,5.0234375 10.8593745,5.08593687 10.96875,5.2109375 L11.8359375,6.0546875 C11.945313,6.16406305 12,6.30468664 12,6.4765625 C12,6.64843836 11.945313,6.78906195 11.8359375,6.8984375 L4.921875,13.7890625 C4.81249945,13.9140631 4.67187586,13.9765625 4.5,13.9765625 C4.32812414,13.9765625 4.18750055,13.9140631 4.078125,13.7890625 Z" id=""></path>
            </g>
        </g>
    </g>
</svg>