<?xml version="1.0" encoding="UTF-8"?>
<svg width="42px" height="46px" viewBox="0 0 42 46" version="1.1" xmlns="http://www.w3.org/2000/svg" xmlns:xlink="http://www.w3.org/1999/xlink">
    <!-- Generator: Sketch 54.1 (76490) - https://sketchapp.com -->
    <title>Shape</title>
    <desc>Created with Sketch.</desc>
    <g id="Page-1" stroke="none" stroke-width="1" fill="none" fill-rule="evenodd">
        <g id="Desktop-HD" transform="translate(-1200.000000, -1236.000000)" fill="#161616" fill-rule="nonzero" stroke="#EA7033">
            <path d="M1237.16364,1280.36575 C1223.76909,1286.5386 1202.97818,1245.78902 1216.07091,1238.90484 L1219.90182,1237 L1226.25091,1249.49786 L1222.46364,1251.37886 C1218.48364,1253.5312 1226.77273,1269.8589 1230.84364,1267.86789 C1231.00909,1267.79273 1234.58364,1266.02172 1234.59636,1266.01439 L1241,1278.47191 C1240.98545,1278.47925 1237.38364,1280.26492 1237.16364,1280.36575 L1237.16364,1280.36575 Z M1220.00364,1276.21508 C1217.32,1278.18041 1213.62909,1278.36008 1212.50545,1276.40941 C1211.65091,1274.92624 1211.94,1273.2414 1212.27455,1271.2889 C1212.64,1269.1604 1213.05455,1266.74589 1211.73818,1264.48722 C1209.52182,1260.68121 1204.65273,1260.85171 1201,1263.25888 L1202.73818,1265.94106 C1204.24545,1264.94739 1205.98182,1264.52022 1207.27091,1264.82455 C1210.27636,1265.53589 1209.36364,1269.45556 1209.14364,1270.7444 C1208.75818,1272.98657 1208.32545,1275.52941 1209.75636,1278.01908 C1212.01636,1281.94792 1218.08182,1281.82509 1222.18545,1278.59842 C1221.43636,1277.85225 1220.71091,1277.05291 1220.00364,1276.21508 L1220.00364,1276.21508 Z" id="Shape"></path>
        </g>
    </g>
</svg>