<?xml version="1.0" encoding="UTF-8"?>
<svg width="52px" height="48px" viewBox="0 0 52 48" version="1.1" xmlns="http://www.w3.org/2000/svg" xmlns:xlink="http://www.w3.org/1999/xlink">
    <!-- Generator: Sketch 54.1 (76490) - https://sketchapp.com -->
    <title>contract</title>
    <desc>Created with Sketch.</desc>
    <g id="Page-1" stroke="none" stroke-width="1" fill="none" fill-rule="evenodd">
        <g id="Desktop-HD" transform="translate(-99.000000, -1234.000000)" fill="#FFFFFF" fill-rule="nonzero" stroke="#292929" stroke-width="2">
            <g id="contract" transform="translate(100.000000, 1235.000000)">
                <path d="M8.1066717,13.3818182 C7.32476624,13.3818182 6.69090909,12.8201403 6.69090909,12.1272727 C6.69090909,11.4344052 7.32476624,10.8727273 8.1066717,10.8727273 L27.8569647,10.8727273 C28.6388701,10.8727273 29.2727273,11.4344052 29.2727273,12.1272727 C29.2727273,12.8201403 28.6388701,13.3818182 27.8569647,13.3818182 L8.1066717,13.3818182 Z M8.1066717,18.4 C7.32476624,18.4 6.69090909,17.8383221 6.69090909,17.1454545 C6.69090909,16.452587 7.32476624,15.8909091 8.1066717,15.8909091 L27.8569647,15.8909091 C28.6388701,15.8909091 29.2727273,16.452587 29.2727273,17.1454545 C29.2727273,17.8383221 28.6388701,18.4 27.8569647,18.4 L8.1066717,18.4 Z M18.6462546,35.1272727 C19.4341876,35.1272727 20.0727273,35.6889506 20.0727273,36.3818182 C20.0727273,37.0746857 19.4339838,37.6363636 18.6460507,37.6363636 L8.11758562,37.6363636 C7.32965255,37.6363636 6.69090909,37.0746857 6.69090909,36.3818182 C6.69090909,35.6889506 7.32965255,35.1272727 8.11758562,35.1272727 L18.6462546,35.1272727 Z M48.6469552,2.72816765 L44.4184468,0.204048973 C44.0913435,0.00883247385 43.6997236,-0.0494258532 43.3296778,0.0427653942 C42.9596319,0.134752226 42.6413637,0.369420856 42.4451429,0.694645412 L35.08347,12.9010936 L35.08347,4.2502431 C35.08347,3.459974 34.4395368,2.81933682 33.6452018,2.81933682 L1.43826817,2.81933682 C0.643933206,2.81933682 0,3.459974 0,4.2502431 L0,44.5690937 C0,45.3593628 0.643933206,46 1.43826817,46 L33.6452018,46 C34.4395368,46 35.08347,45.3593628 35.08347,44.5690937 L35.08347,27.9987902 L49.1402812,4.69137106 C49.5489548,4.01373473 49.3280779,3.13495386 48.6469552,2.72816765 L48.6469552,2.72816765 Z M30.0723382,30.745517 L27.6854294,32.7166926 L28.3104597,29.6938009 L42.1079717,6.81626689 L43.8698502,7.867983 L30.0723382,30.745517 L30.0723382,30.745517 Z M45.3498282,5.41397873 L43.5879497,4.36226262 L44.1718865,3.39415231 L45.933765,4.44586843 L45.3498282,5.41397873 Z M2.87653634,43.1381874 L2.87653634,5.68114938 L32.2069336,5.68114938 L32.2069336,17.6707131 L29.6667466,21.8824835 C29.6768145,21.8140044 29.6838003,21.7447077 29.6838003,21.6735712 C29.6838003,20.8833021 29.0398671,20.2426649 28.2455322,20.2426649 L8.18128028,20.2426649 C7.38694531,20.2426649 6.74301211,20.8833021 6.74301211,21.6735712 C6.74301211,22.4638403 7.38694531,23.1044775 8.18128028,23.1044775 L28.2455322,23.1044775 C28.565855,23.1044775 28.8604945,22.9989992 29.0994525,22.8229978 L27.6907716,25.1586456 L8.18128028,25.1586456 C7.38694531,25.1586456 6.74301211,25.7992828 6.74301211,26.5895519 C6.74301211,27.379821 7.38694531,28.0204582 8.18128028,28.0204582 L25.9648498,28.0204582 L25.7174677,28.4305151 C25.6340481,28.5689041 25.5746682,28.7203758 25.5419989,28.8783887 L25.2948223,30.074422 L8.18128028,30.074422 C7.38694531,30.074422 6.74301211,30.7150591 6.74301211,31.5053282 C6.74301211,32.2955973 7.38694531,32.9362345 8.18128028,32.9362345 L24.7030777,32.9362345 L24.0420907,36.1330835 C23.919016,36.7281361 24.1871503,37.3356581 24.7108854,37.6484133 C24.9397755,37.7849626 25.1957872,37.8524197 25.4507716,37.8524197 C25.7789023,37.8524197 26.1051837,37.7410134 26.3696195,37.5224935 L32.0980362,32.7919174 C32.1372804,32.7594154 32.1713879,32.7215986 32.2069336,32.6854171 L32.2069336,43.1381874 L2.87653634,43.1381874 Z" id="Shape"></path>
            </g>
        </g>
    </g>
</svg>