<?xml version="1.0" encoding="UTF-8"?>
<svg width="20px" height="20px" viewBox="0 0 20 20" version="1.1" xmlns="http://www.w3.org/2000/svg" xmlns:xlink="http://www.w3.org/1999/xlink">
    <!-- Generator: Sketch 54.1 (76490) - https://sketchapp.com -->
    <title>Shape</title>
    <desc>Created with Sketch.</desc>
    <g id="Page-1" stroke="none" stroke-width="1" fill="none" fill-rule="evenodd">
        <g id="Desktop-HD" transform="translate(-1374.000000, -85.000000)" fill="#000000" fill-rule="nonzero">
            <path d="M1381.62083,100.241667 C1377.41917,100.241667 1374,96.8233333 1374,92.6208333 C1374,88.4183333 1377.41917,85 1381.62083,85 C1385.8225,85 1389.24167,88.4191667 1389.24167,92.6208333 C1389.24167,96.8225 1385.82333,100.241667 1381.62083,100.241667 Z M1381.62083,87.6025 C1378.85333,87.6025 1376.6025,89.8541667 1376.6025,92.6208333 C1376.6025,95.3875 1378.85417,97.6391667 1381.62083,97.6391667 C1384.3875,97.6391667 1386.64,95.3875 1386.64,92.6208333 C1386.64,89.8541667 1384.38833,87.6025 1381.62083,87.6025 Z M1389.34,97.9716667 C1388.65917,98.9516667 1387.79667,99.795 1386.80167,100.455833 L1391.345,105 L1393.85667,102.489167 L1389.34,97.9716667 L1389.34,97.9716667 Z" id="Shape"></path>
        </g>
    </g>
</svg>