<?xml version="1.0" encoding="UTF-8"?>
<svg width="61px" height="52px" viewBox="0 0 61 52" version="1.1" xmlns="http://www.w3.org/2000/svg" xmlns:xlink="http://www.w3.org/1999/xlink">
    <!-- Generator: Sketch 54.1 (76490) - https://sketchapp.com -->
    <title>box</title>
    <desc>Created with Sketch.</desc>
    <g id="Page-1" stroke="none" stroke-width="1" fill="none" fill-rule="evenodd">
        <g id="Desktop-HD" transform="translate(-612.000000, -1234.000000)" fill="#FFFFFF" fill-rule="nonzero" stroke="#292929" stroke-width="2">
            <g id="box" transform="translate(613.000000, 1235.000000)">
                <path d="M58.2267047,31.3018289 C57.8942527,30.3878663 56.8835455,29.9164165 55.9703039,30.2494141 L53.2301344,31.2470713 C53.2644032,30.977735 53.2381454,30.6963787 53.1388993,30.4239262 L44.9486542,7.91542563 C44.5538954,6.82917679 43.7594821,5.96240361 42.7122807,5.47403684 C41.6646343,4.98522492 40.4901488,4.93402874 39.4046732,5.32935209 L16.9029729,13.5216271 C16.6466244,13.6151158 16.4027373,13.7317539 16.1730918,13.8675351 L11.5485829,1.15886884 C11.3892552,0.719917408 11.0616988,0.362434781 10.6384568,0.164772993 C10.2152147,-0.032443412 9.73100089,-0.0533670861 9.29218219,0.106008825 L1.15890341,3.06737235 C0.245216908,3.40037006 -0.226090491,4.41049241 0.1068065,5.32445504 C0.43925847,6.23841766 1.44952067,6.70942234 2.36320728,6.37731505 L8.84223716,4.01828527 L21.0312516,37.5179325 C21.0899981,37.6781987 21.169662,37.8237737 21.2657927,37.955103 C20.315167,38.6139753 19.550572,39.5141373 19.0490013,40.590592 C18.3030985,42.1910284 18.2247698,43.9864552 18.8287019,45.646101 C19.4321889,47.3057467 20.6462838,48.6306142 22.2462365,49.3767425 C23.1345554,49.7912088 24.0834007,50 25.0358066,50 C25.7977313,50 26.5623262,49.8659997 27.3002182,49.5975537 C30.1520951,48.5593847 31.8561895,45.7493836 31.627434,42.8601399 L57.1746078,33.5589116 C58.0882943,33.2263592 58.5591566,32.2157915 58.2267047,31.3018289 Z M32.6630641,15.4154397 L28.549472,16.9130385 L27.3015533,13.4842316 L31.4151454,11.9861877 L32.6630641,15.4154397 Z M17.6270683,17.8639514 C17.6270683,17.8635062 17.6266233,17.863061 17.6266233,17.8626158 C17.5273773,17.5901632 17.6008104,17.3604483 17.6537713,17.2478168 C17.7062871,17.13474 17.8349064,16.9308458 18.1077218,16.8315698 L23.9930557,14.6888995 L25.8426812,19.772455 C26.1030351,20.4878655 26.7781751,20.9317139 27.49693,20.9317139 C27.6972022,20.9317139 27.9005899,20.8974348 28.0990819,20.825315 L35.5211717,18.1226032 C36.4348582,17.7900508 36.9061656,16.7794833 36.5737137,15.8655207 L34.7240881,10.7815198 L40.6094221,8.63884952 C40.8822374,8.53957358 41.1114379,8.61302891 41.2244804,8.66556056 C41.3370779,8.71809232 41.5409106,8.84719561 41.6401566,9.11964819 L49.8299566,31.6281487 C49.9292027,31.9010465 50.0889754,32.1334325 50.2883576,32.3177386 L30.4231302,39.5501972 C29.0652843,37.6439195 26.7750598,36.5883884 24.4416656,36.7998508 C24.4309844,36.6373585 24.3984958,36.473976 24.3401943,36.3132646 L17.6270683,17.8639514 Z M26.0959144,46.2876111 C25.3206383,46.5703028 24.482165,46.5333527 23.7344819,46.1847736 C22.9863538,45.8357494 22.4193609,45.2169436 22.1371994,44.440988 C21.8550381,43.6654776 21.8915321,42.826751 22.2404509,42.078842 C22.5889247,41.330933 23.2079885,40.7633234 23.9832646,40.4810768 C24.3308483,40.3546446 24.6864427,40.2945447 25.0362516,40.2945447 C26.2984119,40.2945447 27.4862488,41.074507 27.9419795,42.3276999 C28.5245492,43.9285813 27.6963122,45.7053104 26.0959144,46.2876111 L26.0959144,46.2876111 Z" id="Shape"></path>
            </g>
        </g>
    </g>
</svg>